<svg width="30" height="32" viewBox="0 0 30 32" fill="none" xmlns="http://www.w3.org/2000/svg">
<path d="M15 0.344238C23.283 0.344238 30 7.22916 30 15.7192C30 24.2093 23.283 31.0942 15 31.0942C6.717 31.0942 0 24.2093 0 15.7192C0 7.22916 6.717 0.344238 15 0.344238Z" fill="black"/>
<path d="M14.28 24.1201V22.3001C12.16 22.1001 10.62 21.3201 9.48 20.2401L11.3 17.5601C12.02 18.2801 13.04 18.9201 14.28 19.1801V16.9601C12.22 16.5001 9.92 15.6601 9.92 12.8201C9.92 10.8001 11.46 8.96012 14.28 8.64012V6.76012H16.5V8.66012C18.1 8.88012 19.5 9.48012 20.64 10.4401L18.76 13.0201C18.08 12.4601 17.3 12.0801 16.5 11.8601V13.8001C18.58 14.2801 20.96 15.1201 20.96 17.9001C20.96 20.3001 19.38 21.9801 16.5 22.3001V24.1201H14.28ZM17.46 18.2601C17.46 17.8801 17.08 17.6401 16.5 17.4601V19.2201C17.1 19.0601 17.46 18.7201 17.46 18.2601ZM13.42 12.5401C13.42 12.9001 13.74 13.1201 14.28 13.2801V11.6801C13.68 11.7801 13.42 12.1001 13.42 12.5401Z" fill="white"/>
</svg>
