<svg width="40" height="40" viewBox="0 0 40 40" fill="none" xmlns="http://www.w3.org/2000/svg">
<g clip-path="url(#clip0_2008_1035)">
<path d="M19.999 0C31.043 0 39.999 8.956 39.999 20C39.999 31.044 31.043 40 19.999 40C8.95502 40 -0.000976562 31.044 -0.000976562 20C-0.000976562 8.956 8.95502 0 19.999 0Z" fill="#222222"/>
<path fill-rule="evenodd" clip-rule="evenodd" d="M10.7477 18.397H26.7261C26.9263 18.397 27.1163 18.4798 27.2544 18.6273L29.7822 21.2789C30.2484 21.7683 29.9169 22.603 29.2539 22.603H13.2755C13.0752 22.603 12.8853 22.5202 12.7471 22.3727L10.2193 19.7211C9.74967 19.2317 10.0846 18.397 10.7477 18.397ZM10.2193 14.8819L12.7471 12.2303C12.8887 12.0828 13.0786 12 13.2755 12H29.2504C29.9134 12 30.2484 12.8347 29.7788 13.324L27.2544 15.9757C27.1128 16.1232 26.9229 16.2059 26.7261 16.2059H10.7477C10.0846 16.2059 9.74967 15.3712 10.2193 14.8819ZM29.7788 26.1181L27.251 28.7697C27.1094 28.9172 26.9194 29 26.7226 29H10.7477C10.0846 29 9.74967 28.1653 10.2193 27.676L12.7471 25.0243C12.8887 24.8768 13.0786 24.7941 13.2755 24.7941H29.2504C29.9134 24.7941 30.2484 25.6288 29.7788 26.1181Z" fill="url(#paint0_linear_2008_1035)"/>
</g>
<defs>
<linearGradient id="paint0_linear_2008_1035" x1="11.1386" y1="29.7315" x2="29.586" y2="12.0254" gradientUnits="userSpaceOnUse">
<stop stop-color="#CB4EE8"/>
<stop offset="1" stop-color="#10F4B1"/>
</linearGradient>
<clipPath id="clip0_2008_1035">
<rect width="40" height="40" fill="white"/>
</clipPath>
</defs>
</svg>
