<svg width="59" height="59" viewBox="0 0 59 59" fill="none" xmlns="http://www.w3.org/2000/svg">
<circle cx="29.6406" cy="29.228" r="27.5" fill="#FB132B" stroke="black" stroke-width="3"/>
<path d="M56.1406 21.228C50.1406 42.228 39.6406 49.728 17.1406 53.228C20.3073 55.8947 20.9406 55.428 28.1406 56.228C37.1406 57.228 47.6406 50.728 52.1406 45.728C56.6406 40.728 56.6406 27.7285 56.1406 21.228Z" fill="black" fill-opacity="0.3"/>
<mask id="path-3-outside-1_2008_1160" maskUnits="userSpaceOnUse" x="19.6406" y="13.228" width="17" height="31" fill="black">
<rect fill="white" x="19.6406" y="13.228" width="17" height="31"/>
<path d="M27.0215 41.228V22.2261H22.8486V16.7427H33.1255V41.228H27.0215Z"/>
</mask>
<path d="M27.0215 41.228V22.2261H22.8486V16.7427H33.1255V41.228H27.0215Z" fill="white"/>
<path d="M27.0215 41.228H24.0215V44.228H27.0215V41.228ZM27.0215 22.226H30.0215V19.2261H27.0215V22.226ZM22.8486 22.226H19.8486V25.226H22.8486V22.226ZM22.8486 16.7427V13.7427H19.8486V16.7427H22.8486ZM33.1255 16.7427H36.1255V13.7427H33.1255V16.7427ZM33.1255 41.228V44.228H36.1255V41.228H33.1255ZM30.0215 41.228V22.226H24.0215V41.228H30.0215ZM27.0215 19.2261H22.8486V25.226H27.0215V19.2261ZM25.8486 22.226V16.7427H19.8486V22.226H25.8486ZM22.8486 19.7427H33.1255V13.7427H22.8486V19.7427ZM30.1255 16.7427V41.228H36.1255V16.7427H30.1255ZM33.1255 38.228H27.0215V44.228H33.1255V38.228Z" fill="black" mask="url(#path-3-outside-1_2008_1160)"/>
</svg>
