<svg width="30" height="32" viewBox="0 0 30 32" fill="none" xmlns="http://www.w3.org/2000/svg">
<path d="M15 0.344238C23.283 0.344238 30 7.22916 30 15.7192C30 24.2093 23.283 31.0942 15 31.0942C6.717 31.0942 0 24.2093 0 15.7192C0 7.22916 6.717 0.344238 15 0.344238Z" fill="black"/>
<path d="M21.6097 8.47921C21.3397 8.25025 20.9156 8.21749 20.4771 8.39353H20.4764C20.0152 8.57857 7.42245 13.98 6.90981 14.2007C6.81657 14.2331 6.00225 14.5369 6.08613 15.2137C6.16101 15.8239 6.81549 16.0766 6.89541 16.1058L10.0969 17.202C10.3093 17.909 11.0923 20.5176 11.2654 21.0749C11.3734 21.4223 11.5495 21.8788 11.858 21.9727C12.1287 22.0771 12.398 21.9817 12.5722 21.8449L14.5296 20.0294L17.6893 22.4936L17.7645 22.5386C17.9791 22.6337 18.1846 22.6812 18.3808 22.6812C18.5324 22.6812 18.6778 22.6528 18.8168 22.5959C19.2902 22.4015 19.4796 21.9504 19.4994 21.8993L21.8595 9.63157C22.0035 8.97637 21.8034 8.64301 21.6097 8.47921ZM12.9204 17.6405L11.8404 20.5205L10.7604 16.9205L19.0404 10.8005L12.9204 17.6405Z" fill="white"/>
</svg>
