<svg width="59" height="58" viewBox="0 0 59 58" fill="none" xmlns="http://www.w3.org/2000/svg">
<circle cx="29.8203" cy="29.0034" r="27.5" fill="#FB132B" stroke="black" stroke-width="3"/>
<path d="M55.9609 21.4521C49.9609 42.4521 39.4609 49.9521 16.9609 53.4521C20.1276 56.1188 20.7609 55.6521 27.9609 56.4521C36.9609 57.4521 47.4609 50.9521 51.9609 45.9521C56.4609 40.9521 56.4609 27.9526 55.9609 21.4521Z" fill="black" fill-opacity="0.3"/>
<mask id="path-3-outside-1_2008_1211" maskUnits="userSpaceOnUse" x="16.8203" y="12.0034" width="25" height="33" fill="black">
<rect fill="white" x="16.8203" y="12.0034" width="25" height="33"/>
<path d="M29.0881 20.3806C27.5017 20.3806 26.628 21.2312 26.4671 22.9326H20.7424C20.7424 20.5185 21.5126 18.6563 23.053 17.3458C24.6163 16.0123 26.6855 15.3456 29.2605 15.3456C31.8355 15.3456 33.8357 15.9778 35.2611 17.2423C36.6866 18.5068 37.3993 20.1162 37.3993 22.0704C37.3993 23.6108 37.0199 24.8638 36.2612 25.8294C35.5255 26.795 34.7668 27.4388 33.9851 27.7607V27.8986C36.5601 28.8872 37.8476 30.8759 37.8476 33.8647C37.8476 36.1179 37.0889 37.8996 35.5715 39.2101C34.0771 40.4976 31.9964 41.1414 29.3295 41.1414C26.6855 41.1414 24.5244 40.4631 22.846 39.1067C21.1677 37.7502 20.3285 35.727 20.3285 33.0371H26.0533C26.0763 34.0487 26.3636 34.8534 26.9154 35.4511C27.4672 36.0259 28.2259 36.3133 29.1915 36.3133C30.1801 36.3133 30.9158 36.0489 31.3987 35.5201C31.9045 34.9913 32.1574 34.2441 32.1574 33.2785C32.1574 32.2899 31.8125 31.5542 31.1228 31.0713C30.433 30.5885 29.3065 30.3471 27.7431 30.3471H26.6395V25.5535H27.7431C30.3641 25.5535 31.6745 24.6339 31.6745 22.7946C31.6745 22.0589 31.4331 21.4726 30.9503 21.0358C30.4905 20.599 29.8698 20.3806 29.0881 20.3806Z"/>
</mask>
<path d="M29.0881 20.3806C27.5017 20.3806 26.628 21.2312 26.4671 22.9326H20.7424C20.7424 20.5185 21.5126 18.6563 23.053 17.3458C24.6163 16.0123 26.6855 15.3456 29.2605 15.3456C31.8355 15.3456 33.8357 15.9778 35.2611 17.2423C36.6866 18.5068 37.3993 20.1162 37.3993 22.0704C37.3993 23.6108 37.0199 24.8638 36.2612 25.8294C35.5255 26.795 34.7668 27.4388 33.9851 27.7607V27.8986C36.5601 28.8872 37.8476 30.8759 37.8476 33.8647C37.8476 36.1179 37.0889 37.8996 35.5715 39.2101C34.0771 40.4976 31.9964 41.1414 29.3295 41.1414C26.6855 41.1414 24.5244 40.4631 22.846 39.1067C21.1677 37.7502 20.3285 35.727 20.3285 33.0371H26.0533C26.0763 34.0487 26.3636 34.8534 26.9154 35.4511C27.4672 36.0259 28.2259 36.3133 29.1915 36.3133C30.1801 36.3133 30.9158 36.0489 31.3987 35.5201C31.9045 34.9913 32.1574 34.2441 32.1574 33.2785C32.1574 32.2899 31.8125 31.5542 31.1228 31.0713C30.433 30.5885 29.3065 30.3471 27.7431 30.3471H26.6395V25.5535H27.7431C30.3641 25.5535 31.6745 24.6339 31.6745 22.7946C31.6745 22.0589 31.4331 21.4726 30.9503 21.0358C30.4905 20.599 29.8698 20.3806 29.0881 20.3806Z" fill="white"/>
<path d="M26.4671 22.9326V25.9326H29.1967L29.4538 23.2151L26.4671 22.9326ZM20.7424 22.9326H17.7424V25.9326H20.7424V22.9326ZM23.053 17.3458L24.9969 19.6308L24.9998 19.6283L23.053 17.3458ZM35.2611 17.2423L37.252 14.9981V14.9981L35.2611 17.2423ZM36.2612 25.8294L33.9023 23.976L33.8885 23.9935L33.8749 24.0113L36.2612 25.8294ZM33.9851 27.7607L32.8429 24.9866L30.9851 25.7516V27.7607H33.9851ZM33.9851 27.8986H30.9851V29.9603L32.9099 30.6993L33.9851 27.8986ZM35.5715 39.2101L37.5296 41.483L37.5324 41.4806L35.5715 39.2101ZM22.846 39.1067L20.9603 41.4399H20.9603L22.846 39.1067ZM20.3285 33.0371V30.0371H17.3285V33.0371H20.3285ZM26.0533 33.0371L29.0525 32.9689L28.9859 30.0371H26.0533V33.0371ZM26.9154 35.4511L24.711 37.486L24.7309 37.5075L24.7513 37.5287L26.9154 35.4511ZM31.3987 35.5201L29.2307 33.4464L29.2067 33.4716L29.1832 33.4973L31.3987 35.5201ZM26.6395 30.3471H23.6395V33.3471H26.6395V30.3471ZM26.6395 25.5535V22.5535H23.6395V25.5535H26.6395ZM30.9503 21.0358L28.8841 23.2108L28.9105 23.2359L28.9376 23.2604L30.9503 21.0358ZM29.0881 17.3806C27.7573 17.3806 26.3006 17.749 25.1502 18.8692C24.0318 19.9581 23.6013 21.3727 23.4804 22.65L29.4538 23.2151C29.4729 23.013 29.5044 22.9363 29.5017 22.9432C29.4952 22.9592 29.451 23.0559 29.3359 23.168C29.2174 23.2834 29.0929 23.3475 29.0123 23.3754C28.9441 23.399 28.9546 23.3806 29.0881 23.3806V17.3806ZM26.4671 19.9326H20.7424V25.9326H26.4671V19.9326ZM23.7424 22.9326C23.7424 21.2106 24.2573 20.26 24.9969 19.6308L21.109 15.0608C18.7679 17.0525 17.7424 19.8264 17.7424 22.9326H23.7424ZM24.9998 19.6283C25.8936 18.8659 27.2129 18.3456 29.2605 18.3456V12.3456C26.1582 12.3456 23.3391 13.1587 21.1061 15.0633L24.9998 19.6283ZM29.2605 18.3456C31.3622 18.3456 32.5615 18.8577 33.2703 19.4865L37.252 14.9981C35.1099 13.0979 32.3088 12.3456 29.2605 12.3456V18.3456ZM33.2703 19.4865C34.0354 20.1653 34.3993 20.9491 34.3993 22.0704H40.3993C40.3993 19.2833 39.3377 16.8484 37.252 14.9981L33.2703 19.4865ZM34.3993 22.0704C34.3993 23.113 34.1495 23.6614 33.9023 23.976L38.6202 27.6829C39.8904 26.0663 40.3993 24.1086 40.3993 22.0704H34.3993ZM33.8749 24.0113C33.3293 24.7275 32.9634 24.937 32.8429 24.9866L35.1274 30.5347C36.5702 29.9406 37.7218 28.8626 38.6475 27.6476L33.8749 24.0113ZM30.9851 27.7607V27.8986H36.9851V27.7607H30.9851ZM32.9099 30.6993C33.7053 31.0047 34.1193 31.3845 34.3637 31.762C34.6201 32.158 34.8476 32.7982 34.8476 33.8647H40.8476C40.8476 31.9425 40.4314 30.0939 39.4003 28.5012C38.3572 26.89 36.8399 25.7811 35.0604 25.0979L32.9099 30.6993ZM34.8476 33.8647C34.8476 35.3667 34.382 36.2735 33.6106 36.9397L37.5324 41.4806C39.7958 39.5258 40.8476 36.869 40.8476 33.8647H34.8476ZM33.6134 36.9373C32.8295 37.6127 31.5322 38.1414 29.3295 38.1414V44.1414C32.4606 44.1414 35.3247 43.3826 37.5296 41.483L33.6134 36.9373ZM29.3295 38.1414C27.2125 38.1414 25.7643 37.6079 24.7318 36.7734L20.9603 41.4399C23.2845 43.3183 26.1586 44.1414 29.3295 44.1414V38.1414ZM24.7318 36.7734C23.9287 36.1244 23.3285 35.0656 23.3285 33.0371H17.3285C17.3285 36.3884 18.4067 39.376 20.9603 41.4399L24.7318 36.7734ZM20.3285 36.0371H26.0533V30.0371H20.3285V36.0371ZM23.054 33.1052C23.0894 34.6624 23.5511 36.2294 24.711 37.486L29.1198 33.4163C29.1315 33.4289 29.1261 33.4319 29.1113 33.3903C29.0933 33.34 29.058 33.2113 29.0525 32.9689L23.054 33.1052ZM24.7513 37.5287C25.9858 38.8146 27.5949 39.3133 29.1915 39.3133V33.3133C29.0044 33.3133 28.943 33.2854 28.961 33.2923C28.97 33.2957 28.9907 33.3048 29.0169 33.3221C29.0433 33.3394 29.0648 33.3581 29.0796 33.3735L24.7513 37.5287ZM29.1915 39.3133C30.691 39.3133 32.3721 38.9032 33.6141 37.5429L29.1832 33.4973C29.2365 33.4389 29.2951 33.3902 29.3525 33.3529C29.4089 33.3161 29.4518 33.2983 29.4702 33.2918C29.501 33.2807 29.4274 33.3133 29.1915 33.3133V39.3133ZM33.5666 37.5938C34.7595 36.3466 35.1574 34.7624 35.1574 33.2785H29.1574C29.1574 33.5048 29.1271 33.598 29.126 33.6013C29.126 33.6013 29.1329 33.5815 29.152 33.5493C29.1715 33.5165 29.198 33.4806 29.2307 33.4464L33.5666 37.5938ZM35.1574 33.2785C35.1574 31.5064 34.4827 29.7613 32.8432 28.6137L29.4024 33.529C29.3759 33.5105 29.3338 33.4759 29.2885 33.4226C29.2428 33.3687 29.2071 33.3114 29.1823 33.2585C29.132 33.1511 29.1574 33.1307 29.1574 33.2785H35.1574ZM32.8432 28.6137C31.3741 27.5854 29.4681 27.3471 27.7431 27.3471V33.3471C28.3829 33.3471 28.8336 33.3977 29.132 33.4616C29.4386 33.5273 29.4831 33.5855 29.4024 33.529L32.8432 28.6137ZM27.7431 27.3471H26.6395V33.3471H27.7431V27.3471ZM29.6395 30.3471V25.5535H23.6395V30.3471H29.6395ZM26.6395 28.5535H27.7431V22.5535H26.6395V28.5535ZM27.7431 28.5535C29.3126 28.5535 31.0251 28.2948 32.415 27.3195C33.9987 26.2081 34.6745 24.5241 34.6745 22.7946H28.6745C28.6745 22.8988 28.6567 22.8456 28.719 22.7145C28.7885 22.5682 28.8931 22.461 28.9684 22.4081C29.0247 22.3687 28.9917 22.4104 28.7798 22.46C28.5673 22.5097 28.2325 22.5535 27.7431 22.5535V28.5535ZM34.6745 22.7946C34.6745 21.3333 34.1597 19.8938 32.9631 18.8112L28.9376 23.2604C28.857 23.1875 28.7735 23.0765 28.7195 22.9454C28.669 22.8229 28.6745 22.7565 28.6745 22.7946H34.6745ZM33.0166 18.8608C31.8762 17.7775 30.4505 17.3806 29.0881 17.3806V23.3806C29.2018 23.3806 29.2074 23.3966 29.1442 23.3743C29.1122 23.3631 29.0689 23.3441 29.0198 23.3144C28.9704 23.2845 28.9243 23.249 28.8841 23.2108L33.0166 18.8608Z" fill="black" mask="url(#path-3-outside-1_2008_1211)"/>
</svg>
