<svg width="59" height="58" viewBox="0 0 59 58" fill="none" xmlns="http://www.w3.org/2000/svg">
<circle cx="29.8203" cy="29.0034" r="27.5" fill="#FB132B" stroke="black" stroke-width="3"/>
<path d="M55.9609 21.4521C49.9609 42.4521 39.4609 49.9521 16.9609 53.4521C20.1276 56.1188 20.7609 55.6521 27.9609 56.4521C36.9609 57.4521 47.4609 50.9521 51.9609 45.9521C56.4609 40.9521 56.4609 27.9526 55.9609 21.4521Z" fill="black" fill-opacity="0.3"/>
<mask id="path-3-outside-1_2008_1185" maskUnits="userSpaceOnUse" x="16.8203" y="12.0034" width="24" height="32" fill="black">
<rect fill="white" x="16.8203" y="12.0034" width="24" height="32"/>
<path d="M20.3144 40.6586V36.2788C20.9352 35.727 21.8089 34.9683 22.9354 34.0027C24.062 33.0371 24.9356 32.2899 25.5564 31.7611C26.1771 31.2093 26.9013 30.5311 27.729 29.7264C28.5567 28.8987 29.1774 28.1975 29.5913 27.6227C30.6718 26.1283 31.2121 24.8293 31.2121 23.7258C31.2121 21.7715 30.35 20.7944 28.6257 20.7944C27.798 20.7944 27.1427 21.0933 26.6599 21.6911C26.1771 22.2658 25.9357 23.105 25.9357 24.2086H20.2455C20.2455 21.4497 21.0387 19.369 22.625 17.9665C24.2344 16.5411 26.3381 15.8284 28.936 15.8284C31.534 15.8284 33.5572 16.5756 35.0056 18.07C36.4541 19.5414 37.1783 21.3232 37.1783 23.4154C37.1783 25.0018 36.8334 26.3927 36.1437 27.5882C35.7298 28.278 35.3735 28.8642 35.0746 29.347C34.7757 29.8298 34.2814 30.4276 33.5917 31.1403C32.902 31.853 32.3962 32.3703 32.0743 32.6922C31.7524 33.0141 31.1547 33.5659 30.281 34.3476C29.4303 35.1292 28.89 35.635 28.6601 35.865H37.6266V40.6586H20.3144Z"/>
</mask>
<path d="M20.3144 40.6586V36.2788C20.9352 35.727 21.8089 34.9683 22.9354 34.0027C24.062 33.0371 24.9356 32.2899 25.5564 31.7611C26.1771 31.2093 26.9013 30.5311 27.729 29.7264C28.5567 28.8987 29.1774 28.1975 29.5913 27.6227C30.6718 26.1283 31.2121 24.8293 31.2121 23.7258C31.2121 21.7715 30.35 20.7944 28.6257 20.7944C27.798 20.7944 27.1427 21.0933 26.6599 21.6911C26.1771 22.2658 25.9357 23.105 25.9357 24.2086H20.2455C20.2455 21.4497 21.0387 19.369 22.625 17.9665C24.2344 16.5411 26.3381 15.8284 28.936 15.8284C31.534 15.8284 33.5572 16.5756 35.0056 18.07C36.4541 19.5414 37.1783 21.3232 37.1783 23.4154C37.1783 25.0018 36.8334 26.3927 36.1437 27.5882C35.7298 28.278 35.3735 28.8642 35.0746 29.347C34.7757 29.8298 34.2814 30.4276 33.5917 31.1403C32.902 31.853 32.3962 32.3703 32.0743 32.6922C31.7524 33.0141 31.1547 33.5659 30.281 34.3476C29.4303 35.1292 28.89 35.635 28.6601 35.865H37.6266V40.6586H20.3144Z" fill="white"/>
<path d="M20.3144 40.6586H17.3144V43.6586H20.3144V40.6586ZM20.3144 36.2788L18.3214 34.0366L17.3144 34.9316V36.2788H20.3144ZM25.5564 31.7611L27.5018 34.0448L27.5258 34.0243L27.5495 34.0033L25.5564 31.7611ZM27.729 29.7264L29.8202 31.8774L29.8354 31.8626L29.8503 31.8477L27.729 29.7264ZM29.5913 27.6227L27.1602 25.8649L27.1567 25.8698L29.5913 27.6227ZM26.6599 21.6911L28.957 23.6206L28.9756 23.5985L28.9938 23.5761L26.6599 21.6911ZM25.9357 24.2086V27.2086H28.9357V24.2086H25.9357ZM20.2455 24.2086H17.2455V27.2086H20.2455V24.2086ZM22.625 17.9665L24.612 20.2141L24.6141 20.2123L22.625 17.9665ZM35.0056 18.07L32.8514 20.1579L32.8595 20.1663L32.8677 20.1745L35.0056 18.07ZM36.1437 27.5882L38.7162 29.1317L38.7294 29.1097L38.7422 29.0874L36.1437 27.5882ZM35.0746 29.347L32.5238 27.768L32.5238 27.768L35.0746 29.347ZM32.0743 32.6922L34.1956 34.8135H34.1956L32.0743 32.6922ZM30.281 34.3476L28.2806 32.1118L28.2658 32.1251L28.2511 32.1386L30.281 34.3476ZM28.6601 35.865L26.5388 33.7436L21.4175 38.865H28.6601V35.865ZM37.6266 35.865H40.6266V32.865H37.6266V35.865ZM37.6266 40.6586V43.6586H40.6266V40.6586H37.6266ZM23.3144 40.6586V36.2788H17.3144V40.6586H23.3144ZM22.3075 38.521C22.9083 37.987 23.7661 37.2419 24.8878 36.2805L20.983 31.7249C19.8516 32.6947 18.9621 33.467 18.3214 34.0366L22.3075 38.521ZM24.8878 36.2805C26.0136 35.3155 26.8845 34.5706 27.5018 34.0448L23.611 29.4773C22.9867 30.0091 22.1104 30.7586 20.983 31.7249L24.8878 36.2805ZM27.5495 34.0033C28.2136 33.4129 28.9718 32.7022 29.8202 31.8774L25.6378 27.5754C24.8308 28.3599 24.1406 29.0056 23.5633 29.5188L27.5495 34.0033ZM29.8503 31.8477C30.7288 30.9692 31.4768 30.1382 32.0259 29.3756L27.1567 25.8698C26.8781 26.2567 26.3846 26.8282 25.6077 27.6051L29.8503 31.8477ZM32.0223 29.3806C33.248 27.6854 34.2121 25.7586 34.2121 23.7258H28.2121C28.2121 23.9001 28.0956 24.5712 27.1602 25.8649L32.0223 29.3806ZM34.2121 23.7258C34.2121 22.3722 33.9217 20.7966 32.815 19.5424C31.6452 18.2165 30.0545 17.7944 28.6257 17.7944V23.7944C28.7807 23.7944 28.7848 23.8172 28.697 23.784C28.6511 23.7667 28.587 23.7365 28.5149 23.6874C28.4421 23.6379 28.3743 23.5782 28.316 23.5121C28.1954 23.3755 28.1672 23.2722 28.1724 23.2898C28.1804 23.3171 28.2121 23.4481 28.2121 23.7258H34.2121ZM28.6257 17.7944C26.9717 17.7944 25.427 18.4431 24.3261 19.8061L28.9938 23.5761C28.982 23.5906 28.9552 23.6204 28.911 23.6553C28.8661 23.6906 28.814 23.7227 28.7585 23.748C28.641 23.8016 28.5775 23.7944 28.6257 23.7944V17.7944ZM24.3628 19.7615C23.2546 21.0808 22.9357 22.7216 22.9357 24.2086H28.9357C28.9357 23.8671 28.974 23.6708 28.9998 23.5809C29.0232 23.4997 29.0264 23.5381 28.957 23.6206L24.3628 19.7615ZM25.9357 21.2086H20.2455V27.2086H25.9357V21.2086ZM23.2455 24.2086C23.2455 22.0327 23.8516 20.8865 24.612 20.2141L20.638 15.7189C18.2257 17.8515 17.2455 20.8667 17.2455 24.2086H23.2455ZM24.6141 20.2123C25.5657 19.3695 26.9107 18.8284 28.936 18.8284V12.8284C25.7654 12.8284 22.9031 13.7127 20.6359 15.7208L24.6141 20.2123ZM28.936 18.8284C30.9362 18.8284 32.1015 19.3842 32.8514 20.1579L37.1598 15.9821C35.0129 13.767 32.1318 12.8284 28.936 12.8284V18.8284ZM32.8677 20.1745C33.7555 21.0765 34.1783 22.0989 34.1783 23.4154H40.1783C40.1783 20.5475 39.1526 18.0064 37.1436 15.9654L32.8677 20.1745ZM34.1783 23.4154C34.1783 24.5552 33.9347 25.4138 33.5451 26.0891L38.7422 29.0874C39.7321 27.3716 40.1783 25.4483 40.1783 23.4154H34.1783ZM33.5712 26.0447C33.1618 26.727 32.8131 27.3007 32.5238 27.768L37.6254 30.9261C37.9339 30.4278 38.2978 29.8289 38.7162 29.1317L33.5712 26.0447ZM32.5238 27.768C32.3916 27.9815 32.0692 28.3996 31.4359 29.0541L35.7475 33.2266C36.4936 32.4556 37.1598 31.6782 37.6254 30.9261L32.5238 27.768ZM31.4359 29.0541C30.7475 29.7654 30.2562 30.2676 29.953 30.5709L34.1956 34.8135C34.5361 34.4731 35.0564 33.9407 35.7475 33.2266L31.4359 29.0541ZM29.953 30.5709C29.6973 30.8265 29.1574 31.3273 28.2806 32.1118L32.2814 36.5833C33.1519 35.8044 33.8075 35.2016 34.1956 34.8135L29.953 30.5709ZM28.2511 32.1386C27.414 32.9078 26.8227 33.4598 26.5388 33.7436L30.7815 37.9863C30.9574 37.8103 31.4466 37.3507 32.3109 36.5565L28.2511 32.1386ZM28.6601 38.865H37.6266V32.865H28.6601V38.865ZM34.6266 35.865V40.6586H40.6266V35.865H34.6266ZM37.6266 37.6586H20.3144V43.6586H37.6266V37.6586Z" fill="black" mask="url(#path-3-outside-1_2008_1185)"/>
</svg>
