<svg width="30" height="31" viewBox="0 0 30 31" fill="none" xmlns="http://www.w3.org/2000/svg">
<path d="M15 0.120605C23.283 0.120605 30 7.00553 30 15.4956C30 23.9857 23.283 30.8706 15 30.8706C6.717 30.8706 0 23.9857 0 15.4956C0 7.00553 6.717 0.120605 15 0.120605Z" fill="black"/>
<path fill-rule="evenodd" clip-rule="evenodd" d="M7.56075 13.8407H19.5445C19.6948 13.8407 19.8372 13.9018 19.9408 14.0106L21.8367 15.9671C22.1863 16.3282 21.9377 16.9441 21.4404 16.9441H9.45661C9.30639 16.9441 9.16394 16.883 9.06034 16.7742L7.16448 14.8176C6.81225 14.4566 7.06348 13.8407 7.56075 13.8407ZM7.16448 11.247L9.06034 9.29051C9.16653 9.18166 9.30898 9.12061 9.45661 9.12061H21.4378C21.9351 9.12061 22.1863 9.7365 21.8341 10.0975L19.9408 12.0541C19.8346 12.1629 19.6922 12.224 19.5445 12.224H7.56075C7.06348 12.224 6.81225 11.6081 7.16448 11.247ZM21.8341 19.5377L19.9382 21.4942C19.832 21.6031 19.6896 21.6642 19.542 21.6642H7.56075C7.06348 21.6642 6.81225 21.0483 7.16448 20.6872L9.06034 18.7307C9.16653 18.6218 9.30898 18.5608 9.45661 18.5608H21.4378C21.9351 18.5608 22.1863 19.1767 21.8341 19.5377Z" fill="white"/>
</svg>
